# xmcd
#
# Track frame offsets: 
#        150
#        32897
#        63012
#        93610
#        123652
#        154643
#        184995
#        215913
#        257652
#
# Disc length: 3847 seconds
#
# Revision: 0
# Processed by: cddbd v1.5.2PL0 Copyright (c) Steve Scherf et al.
# Submitted via: ExactAudioCopy v0.99pb3
#
DISCID=820f0509
DTITLE=Stefan Jürgens - Alles aus Liebe
DYEAR=2010
DGENRE=Blues
TTITLE0=liebe
TTITLE1=feuer
TTITLE2=langersehnte angst
TTITLE3=ich will nicht viel von dir
TTITLE4=geteiltes meer
TTITLE5=verlang von mir zuviel
TTITLE6=engel
TTITLE7=jeder tag
TTITLE8=wer bist du
EXTD=
EXTT0=
EXTT1=
EXTT2=
EXTT3=
EXTT4=
EXTT5=
EXTT6=
EXTT7=
EXTT8=
PLAYORDER=
